<svg xmlns="http://www.w3.org/2000/svg" viewBox="0 0 640 780" fill="none">
  <rect width="640" height="780" rx="48" fill="#111827"/>
  <rect x="32" y="32" width="576" height="716" rx="36" fill="url(#bg)"/>
  <path d="M216 100h208l66 66 74 46-56 98-60-28v346H192V282l-60 28-56-98 74-46 66-66Z" fill="#1F2937"/>
  <path d="M244 100h152l26 40H218l26-40Z" fill="#E5E7EB"/>
  <path d="M244 176h152v434H244V176Z" fill="#0F172A"/>
  <path d="M282 176h22v434h-22V176Zm54 0h22v434h-22V176Z" fill="#334155"/>
  <path d="M188 250h56v322h-56V250Zm208 0h56v322h-56V250Z" fill="#111827"/>
  <circle cx="230" cy="232" r="24" fill="#D1D5DB"/>
  <rect x="342" y="214" width="90" height="30" rx="15" fill="#E5E7EB" opacity=".18"/>
  <rect x="214" y="632" width="212" height="26" rx="13" fill="#E5E7EB" opacity=".12"/>
  <defs>
    <linearGradient id="bg" x1="112" y1="64" x2="538" y2="726" gradientUnits="userSpaceOnUse">
      <stop stop-color="#182335"/>
      <stop offset="1" stop-color="#445065"/>
    </linearGradient>
  </defs>
</svg>
