<svg xmlns="http://www.w3.org/2000/svg" viewBox="0 0 640 780" fill="none">
  <rect width="640" height="780" rx="48" fill="#FEF08A"/>
  <rect x="32" y="32" width="576" height="716" rx="36" fill="url(#bg)"/>
  <path d="M216 100h208l66 66 74 46-56 98-60-28v346H192V282l-60 28-56-98 74-46 66-66Z" fill="#F6D647"/>
  <path d="M244 100h152l26 40H218l26-40Z" fill="#0E8E50"/>
  <path d="M244 176h152v434H244V176Z" fill="#F5D231"/>
  <path d="M240 248h160l-18 112-62 48-62-48-18-112Z" fill="#178F55" opacity=".92"/>
  <path d="M188 250h56v322h-56V250Zm208 0h56v322h-56V250Z" fill="#E7C41A"/>
  <circle cx="230" cy="232" r="24" fill="#0E8E50"/>
  <rect x="342" y="214" width="90" height="30" rx="15" fill="#0E8E50" opacity=".18"/>
  <rect x="214" y="632" width="212" height="26" rx="13" fill="#0E8E50" opacity=".12"/>
  <defs>
    <linearGradient id="bg" x1="108" y1="68" x2="518" y2="726" gradientUnits="userSpaceOnUse">
      <stop stop-color="#FFF7C8"/>
      <stop offset="1" stop-color="#FFD93B"/>
    </linearGradient>
  </defs>
</svg>
